<?xml version="1.0" standalone="no"?>
<!DOCTYPE svg PUBLIC "-//W3C//DTD SVG 20010904//EN"
 "http://www.w3.org/TR/2001/REC-SVG-20010904/DTD/svg10.dtd">
<svg version="1.0" xmlns="http://www.w3.org/2000/svg"
 width="1025.000000pt" height="1025.000000pt" viewBox="0 0 1025.000000 1025.000000"
 preserveAspectRatio="xMidYMid meet">
<metadata>
Created by potrace 1.11, written by Peter Selinger 2001-2013
</metadata>
<g transform="translate(0.000000,1025.000000) scale(0.100000,-0.100000)"
fill="#000000" stroke="none">
<path d="M8160 7962 c-19 -1 -53 -7 -75 -12 -22 -6 -49 -12 -61 -14 -44 -8
-192 -89 -245 -134 -110 -93 -208 -264 -226 -397 -8 -53 -10 -70 -12 -76 0 -3
-29 -6 -63 -6 -35 0 -189 -3 -343 -6 -154 -4 -408 -9 -565 -12 -157 -3 -299
-8 -316 -10 -27 -5 -33 -1 -54 37 -26 48 -89 111 -135 135 -133 70 -299 43
-405 -67 -53 -55 -96 -139 -93 -183 1 -10 -11 -24 -28 -32 -16 -9 -29 -13 -29
-11 0 3 -15 -1 -34 -9 -18 -8 -44 -16 -57 -19 -13 -2 -36 -9 -52 -15 -15 -6
-38 -13 -50 -16 -25 -5 -114 -32 -237 -70 -47 -15 -97 -30 -111 -35 -25 -7
-28 -5 -50 47 -62 147 -248 220 -408 161 -59 -22 -139 -95 -169 -154 -19 -37
-22 -39 -63 -37 -24 1 -140 4 -258 7 -118 4 -216 8 -219 10 -2 2 -12 35 -21
74 -58 224 -225 404 -450 484 -82 29 -113 33 -246 31 -137 -1 -210 -21 -328
-87 -131 -73 -267 -238 -307 -372 -9 -30 -17 -40 -29 -38 -9 2 -110 27 -226
55 -115 28 -217 53 -225 54 -8 2 -46 11 -85 20 -38 9 -77 18 -85 20 -8 2 -40
10 -70 18 -44 12 -200 48 -220 52 -3 0 -25 6 -50 13 -36 10 -181 45 -282 68
-16 4 -46 11 -73 18 -5 1 -19 5 -30 8 -11 4 -37 9 -58 13 -35 6 -40 11 -69 73
-102 217 -353 293 -554 166 -49 -31 -108 -94 -133 -142 -40 -77 -53 -191 -30
-274 54 -202 265 -324 467 -272 32 8 67 21 79 29 20 14 23 12 44 -23 13 -20
102 -156 198 -302 96 -146 208 -317 249 -380 41 -63 118 -180 170 -259 53 -80
95 -149 95 -155 0 -6 -14 -31 -31 -56 -53 -79 -73 -214 -42 -295 13 -34 7 -43
-44 -65 -22 -10 -157 -75 -299 -144 -142 -69 -263 -126 -269 -126 -6 0 -26 9
-44 20 -91 57 -218 46 -302 -25 -110 -94 -115 -275 -10 -376 158 -150 425 -45
431 169 l2 59 90 44 c49 23 194 94 322 156 l232 112 54 -28 c30 -16 60 -30 67
-33 13 -4 13 -7 -15 -108 -2 -8 -13 -46 -25 -85 -12 -38 -23 -77 -25 -85 -2
-8 -18 -62 -35 -120 -27 -90 -92 -312 -105 -360 -2 -8 -13 -46 -25 -85 -12
-38 -23 -77 -25 -85 -2 -8 -10 -35 -18 -60 -20 -61 -46 -151 -52 -175 -2 -11
-21 -74 -40 -140 -20 -66 -38 -127 -40 -135 -2 -8 -18 -62 -35 -120 -17 -58
-43 -147 -57 -197 -24 -87 -27 -92 -49 -87 -27 7 -127 -20 -169 -46 -206 -126
-207 -427 -4 -556 205 -129 485 18 492 259 2 68 8 76 82 116 22 11 56 31 77
43 20 13 89 54 155 93 181 106 516 304 533 315 8 5 56 33 105 62 50 29 104 61
120 70 91 54 90 54 142 26 66 -35 126 -47 205 -43 38 2 68 1 68 -3 0 -4 12
-20 28 -37 15 -16 52 -59 82 -95 30 -36 59 -68 64 -72 6 -4 -2 -28 -18 -57
-32 -60 -38 -81 -39 -141 -2 -61 7 -98 33 -150 85 -167 297 -216 452 -104 l49
35 87 -31 c48 -17 110 -40 137 -50 28 -10 67 -24 88 -31 26 -9 36 -18 32 -29
-7 -22 -7 -117 0 -165 16 -114 74 -226 161 -310 34 -33 68 -64 76 -70 25 -18
122 -63 153 -71 17 -4 37 -9 45 -12 8 -3 60 -5 115 -6 155 -1 280 49 388 156
67 66 132 172 142 230 3 17 8 35 11 39 2 4 7 29 10 56 6 51 8 56 27 59 7 1 46
9 87 18 41 9 98 21 125 26 56 11 63 13 160 34 39 8 82 17 95 20 14 2 61 12
105 21 44 9 89 19 100 21 11 2 31 6 45 9 14 3 34 7 45 9 11 3 53 12 92 20 117
25 133 27 133 16 0 -19 83 -90 130 -112 33 -16 65 -22 125 -22 69 -1 88 3 138
27 65 32 108 73 140 132 22 42 24 46 26 69 1 13 20 24 56 32 6 1 91 23 190 48
99 24 191 47 205 50 14 3 88 22 165 41 77 19 149 37 160 40 11 2 94 23 185 45
154 38 166 39 177 23 7 -9 13 -20 13 -25 0 -21 92 -148 137 -188 74 -67 84
-74 154 -108 104 -49 188 -66 294 -59 128 9 191 27 283 84 29 18 55 33 57 33
9 0 107 106 135 146 30 42 78 143 86 179 3 11 10 45 15 75 17 86 -3 269 -34
308 -5 6 -7 12 -3 12 5 0 -17 43 -51 98 -38 60 -108 135 -163 172 -60 41 -163
90 -192 93 -23 2 -26 11 -33 119 -4 51 -8 113 -10 138 -8 87 -18 245 -19 283
-1 34 3 40 38 60 240 135 287 461 94 657 -136 138 -337 164 -510 66 -44 -25
-118 -92 -118 -107 0 -14 -31 -18 -58 -8 -15 6 -112 40 -217 76 -104 35 -193
68 -197 71 -4 4 -2 30 5 57 17 68 14 163 -8 274 -5 24 -42 116 -66 163 l-21
42 69 65 c213 201 404 376 413 379 5 2 31 -8 57 -22 54 -28 154 -60 228 -72
47 -8 179 -2 234 10 100 23 228 90 308 161 92 83 182 240 208 362 13 61 12
218 -2 282 -26 121 -113 278 -192 346 -19 17 -43 38 -53 48 -10 9 -20 17 -23
17 -3 0 -26 13 -52 29 -38 23 -146 71 -173 76 -63 13 -177 21 -230 17z m-7063
-678 c59 -14 117 -28 128 -30 11 -3 25 -6 30 -8 21 -6 63 -16 170 -42 117 -27
116 -27 155 -37 34 -9 272 -66 296 -72 47 -11 243 -57 382 -91 l152 -37 1 -41
c4 -151 35 -248 120 -378 l38 -57 -56 -48 c-31 -26 -68 -59 -83 -73 -31 -28
-143 -127 -205 -180 -22 -19 -42 -37 -45 -40 -3 -3 -39 -35 -80 -70 -41 -36
-81 -72 -89 -81 -14 -15 -17 -15 -48 2 -18 10 -33 17 -33 14 0 -2 -16 3 -36
11 -38 16 -151 18 -190 3 -19 -7 -28 3 -75 74 -30 45 -56 87 -59 92 -6 13 -42
67 -53 80 -5 6 -48 71 -96 145 -95 147 -271 416 -360 550 -31 47 -59 87 -63
88 -5 2 -8 7 -8 12 0 4 -16 31 -34 59 l-35 51 24 53 c14 28 25 58 25 65 0 16
2 16 127 -14z m6469 -168 c6 -38 79 -205 94 -216 3 -3 19 -22 34 -42 l28 -38
-53 -47 c-29 -27 -65 -59 -79 -73 -15 -14 -70 -65 -124 -115 -54 -49 -123
-113 -154 -142 l-56 -52 -45 32 c-80 58 -178 105 -236 113 -16 3 -41 8 -55 13
-74 23 -231 7 -339 -35 -35 -14 -67 -21 -71 -17 -4 4 -73 122 -153 261 l-146
252 14 41 c8 23 15 50 15 60 0 17 10 19 118 20 64 1 151 3 192 4 41 1 242 6
445 10 204 4 371 8 372 9 2 1 45 2 97 2 l95 0 7 -40z m-1955 -123 c19 -37 92
-109 132 -129 99 -52 224 -51 325 2 29 15 29 15 74 -66 14 -25 48 -85 77 -133
28 -49 51 -90 51 -93 0 -2 15 -27 33 -56 18 -29 41 -70 52 -90 19 -37 19 -38
0 -56 -33 -31 -85 -91 -85 -97 0 -4 -10 -21 -23 -38 -33 -45 -64 -129 -83
-221 -19 -93 -14 -210 11 -296 20 -66 71 -178 94 -203 17 -20 17 -20 -103
-122 -27 -22 -58 -49 -70 -60 -13 -11 -36 -31 -52 -45 -16 -14 -47 -41 -70
-60 -22 -19 -64 -55 -94 -80 -29 -25 -62 -53 -74 -63 -11 -11 -41 -35 -65 -55
-24 -21 -53 -46 -66 -57 -12 -11 -45 -40 -75 -65 -29 -25 -62 -53 -74 -63 -11
-11 -40 -35 -63 -54 -23 -19 -56 -48 -74 -64 -37 -33 -51 -36 -69 -14 -35 42
-177 87 -275 87 -202 1 -380 -124 -456 -321 -17 -44 -22 -78 -23 -156 0 -55 4
-109 8 -120 5 -11 10 -26 12 -33 13 -65 106 -195 167 -233 20 -13 37 -27 37
-31 0 -5 7 -8 15 -8 8 0 15 -6 15 -12 -1 -7 -40 -89 -89 -183 -59 -115 -92
-169 -102 -167 -88 21 -232 15 -301 -13 -21 -8 -38 -13 -38 -10 0 2 -30 -13
-66 -34 -76 -44 -157 -120 -194 -180 -25 -42 -26 -42 -85 -28 -11 3 -41 14
-68 26 -26 11 -51 21 -55 22 -12 3 -24 7 -87 29 l-60 21 -1 67 c-1 71 -34 156
-74 194 -18 17 -18 21 -5 58 8 22 21 55 29 73 7 17 21 50 29 72 9 22 51 128
95 235 44 107 119 292 166 410 48 118 93 229 100 245 8 17 15 36 18 44 3 10
30 14 113 16 127 2 134 4 219 45 135 67 235 196 266 345 19 91 1 254 -31 289
-5 6 -9 18 -9 28 0 10 -4 18 -8 18 -5 0 -14 11 -20 24 -18 40 -82 105 -144
147 -31 21 -61 39 -67 39 -23 0 -20 26 15 132 21 62 37 114 36 115 -1 2 9 33
22 70 13 38 54 163 91 278 95 301 85 279 135 282 117 7 225 80 272 184 22 46
24 48 107 74 46 15 89 28 95 29 6 2 31 9 56 16 25 8 47 14 50 15 3 0 44 13 92
28 48 16 95 30 105 32 10 2 45 13 78 24 80 26 89 26 106 -6z m-1556 -127 c77
-2 166 -5 197 -5 l57 -1 18 -52 c11 -30 38 -73 66 -104 26 -28 47 -58 47 -66
0 -8 -9 -41 -21 -74 -11 -32 -22 -66 -24 -75 -2 -9 -19 -63 -38 -120 -51 -156
-127 -393 -128 -401 0 -4 -15 -51 -33 -105 l-33 -97 -44 -3 c-38 -2 -91 -14
-165 -38 -19 -6 -36 23 -182 297 -88 167 -170 324 -183 349 l-22 47 39 40 c44
45 74 80 74 87 0 2 15 30 34 62 37 64 73 168 78 223 3 40 17 47 82 43 23 -2
104 -5 181 -7z m-1265 -543 c160 -89 407 -99 582 -24 26 11 49 17 52 13 28
-47 195 -369 293 -564 61 -123 71 -153 56 -160 -13 -5 -58 -79 -80 -129 -63
-142 -45 -316 46 -462 13 -21 22 -39 20 -41 -110 -90 -643 -476 -647 -469 -15
21 -101 72 -151 89 -76 24 -199 16 -269 -20 l-51 -26 -15 22 c-15 26 -183 326
-241 433 -21 39 -54 99 -75 135 -20 36 -51 90 -67 120 -17 30 -56 100 -87 156
l-56 101 21 49 c39 86 37 209 -4 292 -12 25 -14 23 123 142 35 30 73 64 86 75
12 11 50 45 84 75 35 30 68 60 74 65 6 6 45 39 86 75 41 36 86 75 99 87 25 22
25 22 55 4 17 -11 47 -28 66 -38z m4841 -834 l216 -73 0 -72 c-1 -122 41 -223
127 -306 40 -39 141 -96 184 -105 15 -3 34 -6 42 -8 8 -2 25 -4 37 -4 14 -1
22 -7 21 -18 -1 -23 12 -219 17 -258 11 -81 16 -256 9 -254 -20 5 -113 -15
-171 -37 -185 -69 -327 -227 -380 -419 -9 -33 -15 -88 -17 -140 l-2 -60 -64
-17 c-36 -9 -76 -19 -90 -22 -14 -2 -106 -24 -205 -49 -99 -25 -195 -49 -214
-52 -19 -3 -37 -8 -41 -10 -3 -2 -17 -6 -31 -8 -13 -3 -49 -12 -79 -21 -30 -8
-66 -18 -80 -20 -34 -7 -272 -65 -287 -71 -7 -2 -19 10 -28 28 -8 18 -29 47
-46 65 -28 30 -30 36 -25 83 3 28 8 54 10 57 2 4 7 30 10 57 4 28 14 88 22
135 9 47 17 92 19 100 1 8 6 33 10 55 4 22 9 49 11 60 1 11 10 61 19 110 9 50
18 103 20 119 2 15 6 35 9 45 3 9 8 35 11 59 5 37 21 127 39 222 3 14 14 79
25 145 19 110 40 225 56 315 4 19 10 53 14 75 6 37 9 40 43 41 66 3 131 15
182 36 28 11 56 21 61 22 17 3 78 38 115 64 38 28 150 141 150 152 0 15 43 61
54 57 6 -2 108 -37 227 -78z m-5619 -177 c15 -26 36 -63 46 -82 10 -19 99
-179 197 -355 98 -176 189 -340 203 -365 14 -25 34 -60 44 -79 15 -26 17 -40
10 -55 -37 -78 -46 -163 -24 -246 7 -30 18 -60 24 -67 6 -8 1 -17 -19 -29 -15
-9 -44 -27 -63 -40 -19 -12 -89 -53 -155 -91 -66 -38 -139 -82 -162 -96 -24
-15 -44 -27 -47 -27 -2 0 -51 -29 -110 -65 -58 -36 -111 -65 -116 -65 -6 0
-10 -4 -10 -9 0 -5 -9 -13 -21 -16 -11 -4 -56 -29 -100 -56 -44 -27 -82 -49
-83 -49 -2 0 -52 -29 -111 -65 -59 -36 -110 -65 -114 -65 -5 0 -23 14 -41 32
l-33 31 62 216 c35 119 64 223 66 231 2 8 20 69 40 135 41 134 79 264 100 340
7 28 18 62 24 78 6 15 8 27 5 27 -4 0 -1 7 6 15 7 8 10 15 6 15 -3 0 3 24 13
53 10 28 29 88 41 132 12 44 40 141 62 215 22 74 41 139 42 145 1 5 4 15 8 20
3 6 9 26 14 45 4 19 8 37 9 40 1 3 11 39 24 80 12 41 25 83 27 93 3 9 15 17
27 17 12 0 31 7 41 15 24 18 30 13 68 -53z m4458 18 c3 -4 42 -22 86 -41 90
-37 84 -27 68 -119 -3 -19 -8 -45 -10 -58 -11 -62 -25 -140 -29 -162 -3 -14
-8 -41 -11 -60 -3 -19 -7 -42 -9 -50 -3 -8 -7 -35 -10 -60 -3 -25 -8 -52 -10
-60 -2 -8 -7 -31 -10 -50 -9 -56 -72 -411 -79 -446 -2 -12 -7 -39 -10 -60 -4
-22 -11 -64 -16 -94 -6 -30 -12 -66 -15 -80 -13 -76 -55 -318 -55 -321 0 -3
-24 -6 -54 -7 -33 -1 -78 -12 -112 -27 -65 -29 -68 -29 -86 -12 -7 7 -26 21
-43 31 -16 11 -34 23 -40 28 -43 34 -84 64 -175 129 -58 42 -166 120 -240 174
-74 54 -136 99 -137 99 -1 1 10 33 24 71 44 120 38 247 -17 372 -11 25 -16 49
-12 52 13 9 103 83 121 101 9 9 45 40 81 70 36 30 70 60 76 65 6 6 33 29 60
52 27 23 59 50 70 60 12 10 43 36 69 58 26 22 57 49 69 60 12 11 44 38 70 60
26 22 58 49 70 60 13 11 47 40 76 65 29 25 58 50 64 55 6 6 33 29 60 52 l48
43 32 -22 c17 -12 33 -25 36 -28z m-2629 -592 c-43 -102 -164 -399 -246 -603
-28 -71 -55 -137 -58 -145 -3 -8 -28 -69 -54 -135 l-48 -119 -60 -1 c-33 0
-70 -4 -81 -8 -18 -6 -30 2 -70 50 -27 32 -51 60 -54 63 -22 22 -70 82 -70 88
0 4 13 21 30 39 78 83 113 221 86 339 -7 30 -4 34 66 85 40 30 78 57 83 62 9
7 169 128 235 177 14 10 79 59 145 109 66 49 123 90 127 90 4 1 -10 -41 -31
-91z m1595 -833 c6 -5 21 -17 34 -25 18 -13 84 -60 175 -126 11 -8 70 -51 130
-95 61 -44 121 -88 134 -97 12 -9 44 -32 70 -51 25 -19 47 -35 48 -36 1 0 -4
-24 -12 -53 -7 -29 -13 -56 -13 -60 0 -7 -100 -35 -160 -46 -38 -6 -127 -25
-197 -41 -33 -8 -76 -16 -95 -19 -44 -7 -77 -14 -98 -20 -9 -3 -30 -8 -47 -11
-69 -12 -95 -17 -195 -40 -170 -38 -181 -39 -188 -13 -8 34 -68 143 -94 174
-23 27 -50 53 -101 97 l-29 24 93 182 c50 101 97 184 103 186 6 2 45 6 86 9
77 5 163 28 191 52 8 8 20 14 25 14 5 1 22 12 38 25 l30 24 30 -22 c17 -12 36
-26 42 -32z"/>
</g>
</svg>
